<?xml version="1.0" encoding="utf-8"?>
<!-- Generator: Adobe Illustrator 26.0.3, SVG Export Plug-In . SVG Version: 6.00 Build 0)  -->
<svg version="1.1" id="圖層_1" xmlns="http://www.w3.org/2000/svg" xmlns:xlink="http://www.w3.org/1999/xlink" x="0px" y="0px"
	 viewBox="0 0 520 196" style="enable-background:new 0 0 520 196;" xml:space="preserve">
<style type="text/css">
	.st0{fill:none;stroke:#000000;}
</style>
<path d="M235,152v0.5h0.5V152H235z M235,152v-0.5h-0.5l0,0.5L235,152z M145,152l0.5,0l0-0.5H145V152z M145,152h-0.5v0.5h0.5V152z
	 M234.5,46v104h1V46H234.5z M234.5,150v2h1v-2H234.5z M235,151.5L235,151.5l0,1h0V151.5z M190,195.5c24.5,0,44.4-19.3,45.5-43.5
	l-1,0c-1,23.7-20.5,42.5-44.5,42.5V195.5z M144.5,152c1.1,24.2,21,43.5,45.5,43.5v-1c-23.9,0-43.4-18.9-44.5-42.5L144.5,152z
	 M145,151.5L145,151.5l0,1h0V151.5z M145.5,152v-2h-1v2H145.5z M145.5,150V46h-1v104H145.5z M190,0.5c-25.1,0-45.5,20.4-45.5,45.5h1
	c0-24.6,19.9-44.5,44.5-44.5V0.5z M235.5,46c0-25.1-20.4-45.5-45.5-45.5v1c24.6,0,44.5,19.9,44.5,44.5H235.5z"/>
<path class="st0" d="M386.2,98.3l-17.9-27.5c-13.5-20.8-7.6-48.7,13.2-62.2c19-12.3,43.8-8.5,58.3,8 M418.9,148.8l20.9,31.2
	c14.5,16.5,39.3,20.3,58.3,8c20.8-13.5,26.8-41.4,13.2-62.2l-18-27.8"/>
<path class="st0" d="M386.1,98.3l-17.8,27.5c-13.5,20.8-7.6,48.7,13.2,62.2c19,12.3,43.8,8.5,58.3-8 M423.4,40.9l12.4-19.1
	C449.3,0.9,477.2-5,498,8.5c20.8,13.5,26.8,41.4,13.2,62.2l-17.9,27.5"/>
<g>
	<path class="st0" d="M289,116V46c0-10.7,3.7-20.5,9.9-28.2"/>
	<path class="st0" d="M334,1c-14.7,0-27.8,7.1-36,18c-8.2-10.9-21.3-18-36-18c-24.9,0-45,20.1-45,45v70h0
		c0.9,43.9,36.8,79.2,81,79.2s80-35.3,81-79.2h0V46C379,21.1,358.9,1,334,1z"/>
</g>
<g>
	<path class="st0" d="M73.4,116V46c0-10.7,3.7-20.5,9.9-28.2"/>
	<path class="st0" d="M118.4,1c-14.7,0-27.8,7.1-36,18C74.2,8.1,61.1,1,46.4,1c-24.9,0-45,20.1-45,45v70h0
		c0.9,43.9,36.8,79.2,81,79.2s80-35.3,81-79.2h0V46C163.4,21.1,143.3,1,118.4,1z"/>
</g>
</svg>
