<?xml version="1.0" encoding="utf-8"?>
<!-- Generator: Adobe Illustrator 26.0.3, SVG Export Plug-In . SVG Version: 6.00 Build 0)  -->
<svg version="1.1" id="圖層_1" xmlns="http://www.w3.org/2000/svg" xmlns:xlink="http://www.w3.org/1999/xlink" x="0px" y="0px"
	 viewBox="0 0 499.2 352.5" style="enable-background:new 0 0 499.2 352.5;" xml:space="preserve">
<style type="text/css">
	.st0{fill:none;stroke:url(#SVGID_1_);}
	.st1{fill:none;stroke:url(#SVGID_00000142886651916148237230000012125443938591345798_);}
	.st2{fill:none;stroke:url(#SVGID_00000093890492903332977900000011823000149863254203_);}
	.st3{fill:none;stroke:url(#SVGID_00000163073404043560927670000014590132673210094987_);}
	.st4{fill:none;stroke:url(#SVGID_00000034779085168189219930000009041647155674247323_);}
	.st5{fill:none;stroke:url(#SVGID_00000148642974902911403580000002648510791602588821_);}
	.st6{fill:none;stroke:url(#SVGID_00000010308072484683396800000001050513175252536495_);}
	.st7{fill:none;stroke:url(#SVGID_00000029750633836395008080000017478899517715340710_);}
	.st8{fill:none;stroke:url(#SVGID_00000152971486484637667540000004079493131246428327_);stroke-miterlimit:10;}
	.st9{fill:none;stroke:url(#SVGID_00000151520431656631195620000002815092424886945463_);}
	.st10{fill:none;stroke:url(#SVGID_00000158710658930259934670000015940114091854553750_);stroke-miterlimit:10;}
	.st11{fill:none;stroke:url(#SVGID_00000020359516557260964490000013574741102966809781_);}
	.st12{fill:none;stroke:url(#SVGID_00000129170123044785384630000017141362362633817019_);}
	.st13{fill:none;stroke:url(#SVGID_00000149365114978976543940000015935393314347801255_);}
	.st14{fill:none;stroke:url(#SVGID_00000106127230891379446010000012804963951270884228_);}
	.st15{fill:none;stroke:url(#SVGID_00000157274888190814427820000009864130686065260176_);}
	.st16{fill:none;stroke:url(#SVGID_00000038410217316118935950000011592898104456088761_);}
	.st17{fill:none;stroke:url(#SVGID_00000143575968106821549090000012834972141123805327_);}
	.st18{fill:none;stroke:url(#SVGID_00000039833921910882914490000016737513514621227951_);}
	.st19{fill:none;stroke:url(#SVGID_00000067210686084889446270000012271264240323529136_);stroke-miterlimit:10;}
	.st20{fill:none;stroke:url(#SVGID_00000121248622464158345750000016158865737160099512_);}
	.st21{fill:none;stroke:url(#SVGID_00000010289838471076610190000017615633366361756294_);}
	.st22{fill:none;stroke:url(#SVGID_00000081611505490503807200000013668827031163362751_);}
	.st23{fill:none;stroke:url(#SVGID_00000016782780331531648310000010408343776060684726_);}
	.st24{fill:none;stroke:url(#SVGID_00000027570926954241465110000015617210919543092406_);}
	.st25{fill:none;stroke:url(#SVGID_00000169560002100906043660000013837567671758809271_);}
	.st26{fill:none;stroke:url(#SVGID_00000049217817146499690400000003775477392143977381_);}
	.st27{fill:none;stroke:url(#SVGID_00000075844057293272949640000011233558817444487048_);stroke-miterlimit:10;}
	.st28{fill:none;stroke:url(#SVGID_00000038413827899006407180000003021647989856800140_);}
</style>
<linearGradient id="SVGID_1_" gradientUnits="userSpaceOnUse" x1="-70.636" y1="-17.9416" x2="-70.636" y2="169.6226">
	<stop  offset="0" style="stop-color:#FFFFFF"/>
	<stop  offset="1" style="stop-color:#FFFFFF;stop-opacity:0"/>
</linearGradient>
<path class="st0" d="M7.2,144.1c-2.7,9.4-8.4,17.6-16.2,23.4c-7.8-5.9-17.3-9-27-9c-9.7,0-19.2,3.1-27,9c-2.5-1.8-4.7-3.9-6.8-6.3
	c-2.6,3-5.6,5.6-8.9,7.7c-8.1-6.8-18.3-10.5-28.9-10.5c-8.9,0-17.5,2.6-24.9,7.5c-6.9-5.7-11.8-13.4-14.3-22
	c-3.6-12.5-1.6-26,5.5-37l10.7-16.5l7.1-11v-0.1c-0.4-0.7-3.6-5.5-7.2-11c-5-7.7-10.7-16.4-10.7-16.4c-10.2-15.9-9.5-36.5,1.9-51.5
	l0.2-0.3c3.1-4,6.8-7.5,11.1-10.2c10-6.5,22.1-8.7,33.7-6.3c9.5,2,18.1,7,24.6,14.3c2.1-2.5,4.5-4.7,7.2-6.6
	c15.1-11.1,35.4-11.7,51.1-1.5c0.8,0.5,1.5,1,2.2,1.5C-5.9-6.1-2.8-3-0.1,0.4C-5.9,8.2-9,17.6-9,27.3v70
	C-8.7,114.2-3,130.6,7.2,144.1z"/>
<linearGradient id="SVGID_00000036956574536249027310000006688719092300684180_" gradientUnits="userSpaceOnUse" x1="418.95" y1="-2.4822" x2="418.95" y2="161.5683">
	<stop  offset="0" style="stop-color:#FFFFFF"/>
	<stop  offset="1" style="stop-color:#FFFFFF;stop-opacity:0"/>
</linearGradient>
<path style="fill:none;stroke:url(#SVGID_00000036956574536249027310000006688719092300684180_);" d="M413,22.2l12.4-19.1
	c1.2-1.8,2.5-3.6,4-5.2 M429.4,161.3l-20.9-31.2"/>
<linearGradient id="SVGID_00000089561742673826371500000013868176555248450202_" gradientUnits="userSpaceOnUse" x1="428.5686" y1="-17.9416" x2="428.5686" y2="169.6632">
	<stop  offset="0" style="stop-color:#FFFFFF"/>
	<stop  offset="1" style="stop-color:#FFFFFF;stop-opacity:0"/>
</linearGradient>
<path style="fill:none;stroke:url(#SVGID_00000089561742673826371500000013868176555248450202_);" d="M506.4,144.2
	c-2.7,9.3-8.4,17.6-16.2,23.4c-16-12-38-12-54,0c-2.5-1.8-4.7-3.9-6.8-6.3c-2.6,3-5.6,5.6-8.9,7.8l0,0c-15.3-12.8-37.2-14-53.8-3
	c-17.4-14.6-21.2-39.9-8.8-59l10.7-16.5l7.1-11v-0.1c-0.4-0.7-3.6-5.5-7.1-11L357.9,52c-10.3-15.9-9.5-36.5,1.9-51.6l0.2-0.3
	c15.2-19.7,43.4-23.3,63.1-8.1c2.3,1.7,4.4,3.7,6.2,5.8c2.1-2.5,4.5-4.7,7.1-6.6c15.1-11.1,35.4-11.7,51.1-1.5
	c0.8,0.5,1.5,1,2.2,1.5c3.5,2.6,6.6,5.7,9.3,9.1c-5.8,7.8-8.9,17.2-8.9,26.8v41c-3.6,5.5-6.8,10.4-7.2,11.1l7.2,11.2v6.7
	C490.5,114.2,496.2,130.6,506.4,144.2z"/>
<linearGradient id="SVGID_00000012458669113536223270000009678758868006555039_" gradientUnits="userSpaceOnUse" x1="283.5146" y1="-1.2236" x2="283.5146" y2="97.29">
	<stop  offset="0" style="stop-color:#FFFFFF"/>
	<stop  offset="1" style="stop-color:#FFFFFF;stop-opacity:0"/>
</linearGradient>
<path style="fill:none;stroke:url(#SVGID_00000012458669113536223270000009678758868006555039_);" d="M278.6,97.3v-70
	c0-10.3,3.5-20.2,9.9-28.2"/>
<linearGradient id="SVGID_00000019651425903477656720000004101234513991722649_" gradientUnits="userSpaceOnUse" x1="212.9155" y1="158.28" x2="212.9155" y2="345.9228">
	<stop  offset="0" style="stop-color:#FFFFFF"/>
	<stop  offset="1" style="stop-color:#FFFFFF;stop-opacity:0"/>
</linearGradient>
<path style="fill:none;stroke:url(#SVGID_00000019651425903477656720000004101234513991722649_);" d="M290.8,320.4
	c-2.5,8.6-7.5,16.2-14.3,21.9c-16.6-11-38.5-9.8-53.8,3c-3.3-2.2-6.3-4.8-8.9-7.7c-2.1,2.4-4.4,4.5-7,6.4
	c-15.9-12.1-37.9-12.2-54-0.3c-18.7-14.3-23.3-40.5-10.5-60.3l10.7-16.6l7.1-11v-0.1l-7.1-11l-10.7-16.4
	c-13-19.9-8.2-46.5,10.9-60.6c0.7-0.6,1.5-1.1,2.3-1.6c15.6-10.1,35.8-9.6,50.9,1.3c2.7,1.9,5.2,4.2,7.3,6.7
	c16.4-18.7,44.9-20.5,63.5-4c2.2,1.9,4.2,4,5.9,6.3l0.2,0.3c-5.8,7.8-8.9,17.2-8.9,26.8v70C274.9,290.5,280.6,306.9,290.8,320.4z"/>
<linearGradient id="SVGID_00000071548095080262242390000008708572776403950477_" gradientUnits="userSpaceOnUse" x1="287.645" y1="-18.2201" x2="287.645" y2="176.9">
	<stop  offset="0" style="stop-color:#FFFFFF"/>
	<stop  offset="1" style="stop-color:#FFFFFF;stop-opacity:0"/>
</linearGradient>
<path style="fill:none;stroke:url(#SVGID_00000071548095080262242390000008708572776403950477_);" d="M368.6,68.5v22l-10.7,16.5
	c-7.1,11-9.1,24.5-5.5,37c-4.9,6.6-10.8,12.4-17.4,17.2c-18.6-6.7-39.4-0.6-51.3,15.2h-0.5c-10.5-13.7-28-20.2-44.9-16.6
	c-19.5-14.9-31.1-37.9-31.7-62.5v-70c0-9.7,3.2-19.2,9-27c2.1-2.8,4.5-5.3,7.1-7.5c15.3-12.8,37.2-14,53.8-3c4.2,2.8,8,6.4,11,10.4
	l0,0c8.5-11.3,21.8-18,36-18c14.1,0,27.4,6.6,35.9,17.9l0.2,0.3c-11.4,15.1-12.1,35.8-1.9,51.6L368.6,68.5z"/>
<linearGradient id="SVGID_00000065033404547719926200000007737228521004203162_" gradientUnits="userSpaceOnUse" x1="67.8946" y1="-1.2236" x2="67.8946" y2="97.29">
	<stop  offset="0" style="stop-color:#FFFFFF"/>
	<stop  offset="1" style="stop-color:#FFFFFF;stop-opacity:0"/>
</linearGradient>
<path style="fill:none;stroke:url(#SVGID_00000065033404547719926200000007737228521004203162_);" d="M63,97.3v-70
	C63,17,66.5,7.1,72.9-0.9"/>
<linearGradient id="SVGID_00000160879018767981418110000008645345359090552721_" gradientUnits="userSpaceOnUse" x1="67.4848" y1="-18.21" x2="67.4848" y2="177.3718">
	<stop  offset="0" style="stop-color:#FFFFFF"/>
	<stop  offset="1" style="stop-color:#FFFFFF;stop-opacity:0"/>
</linearGradient>
<path style="fill:none;stroke:url(#SVGID_00000160879018767981418110000008645345359090552721_);" d="M134.6,131.3
	c0,4.5,0.7,8.9,1.9,13.1c-4.6,6-10,11.4-16,15.9c-4.1-1.2-8.3-1.8-12.6-1.8c-14.2,0-27.5,6.7-36,18l0,0
	c-11.3-14.9-30.6-21.4-48.6-16.2c-6.1-4.6-11.6-10-16.2-16.2C-3,130.7-8.7,114.2-9,97.3v-70c0-24.9,20.1-45,45-45
	c14.2,0,27.5,6.7,36,18l0,0l0,0l0,0c8.5-11.3,21.8-18,36-18c4.3,0,8.5,0.6,12.6,1.8c9.3,2.7,17.4,8.2,23.3,15.9
	c-6,7.8-9.2,17.4-9.2,27.3V131.3z"/>
<linearGradient id="SVGID_00000004534109377717966250000004863085084988239750_" gradientUnits="userSpaceOnUse" x1="178.7206" y1="-18.21" x2="178.7206" y2="168.36">
	<stop  offset="0" style="stop-color:#FFFFFF"/>
	<stop  offset="1" style="stop-color:#FFFFFF;stop-opacity:0"/>
</linearGradient>
<path style="fill:none;stroke:url(#SVGID_00000004534109377717966250000004863085084988239750_);stroke-miterlimit:10;" d="
	M222.8,144.1c-2.8,9.3-8.5,17.5-16.3,23.3c-15.1-10.9-35.3-11.4-50.9-1.3c-0.8,0.5-1.6,1.1-2.3,1.6c-11.7-8.5-18.6-22-18.6-36.4
	v-104c0-24.9,20.1-45,45-45c14.2,0,27.5,6.7,36,18c-5.8,7.8-9,17.3-9,27v70C206.9,114.2,212.6,130.6,222.8,144.1z"/>
<linearGradient id="SVGID_00000170243146801774227910000014876830854850356877_" gradientUnits="userSpaceOnUse" x1="566.6545" y1="-18.2124" x2="566.6545" y2="177.04">
	<stop  offset="0" style="stop-color:#FFFFFF"/>
	<stop  offset="1" style="stop-color:#FFFFFF;stop-opacity:0"/>
</linearGradient>
<path style="fill:none;stroke:url(#SVGID_00000170243146801774227910000014876830854850356877_);" d="M633.8,131.3
	c0,4.5,0.7,8.9,2,13.1c-4.6,6-10,11.4-16,15.9c-4.1-1.2-8.3-1.8-12.6-1.8c-14.2,0-27.5,6.7-36,18h-0.1
	c-11.3-14.9-30.6-21.4-48.6-16.2c-2.9-2.1-5.6-4.5-8.1-7c-15.1-14.8-23.8-34.9-24.3-56.1v-70c0-20,13.2-37.6,32.4-43.2
	c18-5.2,37.3,1.2,48.6,16.2l0,0l0,0l0,0c8.5-11.3,21.8-18,36-18c4.3,0,8.5,0.6,12.6,1.8C629-13.3,637.2-7.7,643,0
	c-6,7.8-9.2,17.4-9.2,27.3L633.8,131.3z"/>
<linearGradient id="SVGID_00000153670438449491581520000011198936437809017736_" gradientUnits="userSpaceOnUse" x1="-36.8894" y1="158.0499" x2="-36.8894" y2="344.4505">
	<stop  offset="0" style="stop-color:#FFFFFF"/>
	<stop  offset="1" style="stop-color:#FFFFFF;stop-opacity:0"/>
</linearGradient>
<path style="fill:none;stroke:url(#SVGID_00000153670438449491581520000011198936437809017736_);stroke-miterlimit:10;" d="
	M7.2,320.4c-2.8,9.4-8.6,17.7-16.5,23.5c-0.7-0.5-1.5-1-2.2-1.5c-15.7-10.2-36-9.6-51.1,1.5c-7.8-5.7-13.5-13.8-16.3-23.1
	c-1.3-4.3-2-8.7-2-13.1v-104c0-9.9,3.2-19.4,9.2-27.3c2.5-3.3,5.5-6.2,8.8-8.7c7.8-5.9,17.3-9,27-9c9.7,0,19.2,3.1,27,9
	c3.4,2.6,6.4,5.6,9,9c-5.8,7.8-9,17.3-9,27v70C-8.7,290.5-3,306.8,7.2,320.4z"/>
<linearGradient id="SVGID_00000060001809723532951750000016696023365760659130_" gradientUnits="userSpaceOnUse" x1="203.37" y1="173.7678" x2="203.37" y2="337.8183">
	<stop  offset="0" style="stop-color:#FFFFFF"/>
	<stop  offset="1" style="stop-color:#FFFFFF;stop-opacity:0"/>
</linearGradient>
<path style="fill:none;stroke:url(#SVGID_00000060001809723532951750000016696023365760659130_);" d="M213.8,337.5l-20.9-31.2
	 M197.4,198.4l12.4-19.1c1.2-1.8,2.5-3.6,4-5.2"/>
<linearGradient id="SVGID_00000101816516408594775810000007804782925437053059_" gradientUnits="userSpaceOnUse" x1="213.82" y1="173.64" x2="213.82" y2="174.64">
	<stop  offset="0" style="stop-color:#FFFFFF"/>
	<stop  offset="1" style="stop-color:#FFFFFF;stop-opacity:0"/>
</linearGradient>
<path style="fill:none;stroke:url(#SVGID_00000101816516408594775810000007804782925437053059_);" d="M213.8,174.1L213.8,174.1"/>
<linearGradient id="SVGID_00000052825487439432270140000013109872587558867346_" gradientUnits="userSpaceOnUse" x1="67.8946" y1="175.0264" x2="67.8946" y2="273.54">
	<stop  offset="0" style="stop-color:#FFFFFF"/>
	<stop  offset="1" style="stop-color:#FFFFFF;stop-opacity:0"/>
</linearGradient>
<path style="fill:none;stroke:url(#SVGID_00000052825487439432270140000013109872587558867346_);" d="M63,273.5v-70
	c0-10.3,3.5-20.2,9.9-28.2"/>
<linearGradient id="SVGID_00000025407989282385538580000017106217840952032167_" gradientUnits="userSpaceOnUse" x1="67.4545" y1="334.213" x2="67.4545" y2="529.4932">
	<stop  offset="0" style="stop-color:#FFFFFF"/>
	<stop  offset="1" style="stop-color:#FFFFFF;stop-opacity:0"/>
</linearGradient>
<path style="fill:none;stroke:url(#SVGID_00000025407989282385538580000017106217840952032167_);" d="M134.6,483.8
	c0,4.5,0.7,8.9,1.9,13.1c-27.1,35.7-77.9,42.6-113.6,15.6c-2.7-2.1-5.3-4.3-7.7-6.6c-2.9-2.9-5.6-5.9-8.1-9.2l0,0
	C-3,483.1-8.7,466.7-9,449.8v-70c0-24.9,20.1-45,44.9-45c14.2,0,27.5,6.7,36.1,18l0,0l0,0v0c14.9-19.9,43.1-23.9,63-9
	c3.3,2.5,6.3,5.4,8.8,8.7c-6,7.8-9.2,17.4-9.2,27.3L134.6,483.8z"/>
<linearGradient id="SVGID_00000012464805176070430110000007353927656105465777_" gradientUnits="userSpaceOnUse" x1="72" y1="158.0399" x2="72" y2="353.24">
	<stop  offset="0" style="stop-color:#FFFFFF"/>
	<stop  offset="1" style="stop-color:#FFFFFF;stop-opacity:0"/>
</linearGradient>
<path style="fill:none;stroke:url(#SVGID_00000012464805176070430110000007353927656105465777_);" d="M153,244.8v22l-10.7,16.5
	c-7.1,11-9.1,24.5-5.5,37c-4.6,6.2-10.1,11.6-16.2,16.2c-18-5.2-37.3,1.2-48.5,16.2h0c-11.3-14.9-30.6-21.4-48.6-16.2
	c-2.9-2.1-5.6-4.5-8.1-7C0.2,314.8-8.5,294.7-9,273.5v-70c0-24.9,20.1-45,45-45c14.2,0,27.5,6.7,36,18l0,0l0,0l0,0
	c8.5-11.3,21.8-18,36-18c14.2,0,27.7,6.7,36.1,18.1c-11.4,15.1-12.1,35.8-1.9,51.6L153,244.8z"/>
<linearGradient id="SVGID_00000031199433513369198590000011857788312765539479_" gradientUnits="userSpaceOnUse" x1="571.21" y1="158" x2="571.21" y2="353.23">
	<stop  offset="0" style="stop-color:#FFFFFF"/>
	<stop  offset="1" style="stop-color:#FFFFFF;stop-opacity:0"/>
</linearGradient>
<path style="fill:none;stroke:url(#SVGID_00000031199433513369198590000011857788312765539479_);" d="M652.2,244.8v22l-10.7,16.5
	c-7.1,11-9.1,24.5-5.5,37c-4.6,6.2-10.1,11.6-16.2,16.2c-18-5.2-37.3,1.2-48.5,16.2h-0.1c-11.3-14.9-30.6-21.4-48.6-16.2
	c-2.9-2.1-5.6-4.5-8.1-7c-15.1-14.8-23.8-34.9-24.3-56.1v-70c0-24.9,20.1-45,45-45c14.2,0,27.5,6.7,36,18l0,0l0,0l0,0
	c8.5-11.3,21.8-18,36-18c4.3,0,8.5,0.6,12.6,1.8c9.4,2.7,17.7,8.5,23.6,16.4c-11.4,15.1-12.1,35.7-1.8,51.6L652.2,244.8z"/>
<linearGradient id="SVGID_00000173138185322687247150000008416114185982869174_" gradientUnits="userSpaceOnUse" x1="351.5046" y1="175.0264" x2="351.5046" y2="273.54">
	<stop  offset="0" style="stop-color:#FFFFFF"/>
	<stop  offset="1" style="stop-color:#FFFFFF;stop-opacity:0"/>
</linearGradient>
<path style="fill:none;stroke:url(#SVGID_00000173138185322687247150000008416114185982869174_);" d="M346.6,273.5v-70
	c0-10.3,3.5-20.2,9.9-28.2"/>
<linearGradient id="SVGID_00000036223494102738026210000000554766984222997421_" gradientUnits="userSpaceOnUse" x1="351.0695" y1="157.9912" x2="351.0695" y2="353.12">
	<stop  offset="0" style="stop-color:#FFFFFF"/>
	<stop  offset="1" style="stop-color:#FFFFFF;stop-opacity:0"/>
</linearGradient>
<path style="fill:none;stroke:url(#SVGID_00000036223494102738026210000000554766984222997421_);" d="M418.2,307.5
	c0,4.5,0.7,8.9,2,13.1c-4.4,5.8-9.6,11-15.4,15.4c-16.9-3.5-34.3,2.9-44.9,16.5h-0.5c-11.9-15.8-32.7-21.9-51.3-15.2
	c-20.7-14.8-33.1-38.5-33.6-64v-70c0-9.7,3.1-19.1,8.9-26.8l0.2-0.3c15-19.8,43.2-23.8,63-8.8c3.4,2.5,6.4,5.5,8.9,8.9l0,0
	c3.1-4.1,6.9-7.7,11.2-10.5c16.6-11,38.5-9.8,53.8,3l0,0c2.6,2.1,4.9,4.6,6.9,7.2c-6,7.8-9.2,17.4-9.2,27.3L418.2,307.5z"/>
<linearGradient id="SVGID_00000062877196436267846620000003251125821476546463_" gradientUnits="userSpaceOnUse" x1="462.3105" y1="158.04" x2="462.3105" y2="344.4404">
	<stop  offset="0" style="stop-color:#FFFFFF"/>
	<stop  offset="1" style="stop-color:#FFFFFF;stop-opacity:0"/>
</linearGradient>
<path style="fill:none;stroke:url(#SVGID_00000062877196436267846620000003251125821476546463_);stroke-miterlimit:10;" d="
	M506.4,320.4c-2.8,9.4-8.6,17.7-16.5,23.5c-0.7-0.5-1.5-1-2.2-1.5c-15.7-10.2-36-9.6-51.1,1.5c-11.5-8.5-18.3-21.9-18.3-36.2v-104
	c0-24.9,20.1-45,45-45c14.2,0,27.5,6.7,36,18c-5.9,7.8-9,17.3-9,27v70C490.5,290.5,496.2,306.8,506.4,320.4z"/>
<linearGradient id="SVGID_00000145755676773370899580000005563131040993811102_" gradientUnits="userSpaceOnUse" x1="-70.6565" y1="334.4884" x2="-70.6565" y2="529.528">
	<stop  offset="0" style="stop-color:#FFFFFF"/>
	<stop  offset="1" style="stop-color:#FFFFFF;stop-opacity:0"/>
</linearGradient>
<path style="fill:none;stroke:url(#SVGID_00000145755676773370899580000005563131040993811102_);" d="M7.2,496.6L7.2,496.6
	c-3,10.4-9.6,19.3-18.7,25.1c-18.7,12.1-43.5,8.7-58.3-8c-14.8,16.7-39.6,20.1-58.3,8c-9.1-5.9-15.7-14.8-18.7-25.2
	c-3.6-12.5-1.6-26,5.5-37l10.7-16.5l7.1-11V432c-0.4-0.7-3.6-5.5-7.2-11c-5-7.6-10.7-16.4-10.7-16.4c-10.3-15.9-9.6-36.5,1.9-51.6
	l0.2-0.3c3.1-4,6.8-7.5,11.1-10.2c10-6.5,22.1-8.7,33.7-6.3c9.5,2,18.1,7,24.6,14.3c2.1-2.5,4.5-4.7,7.2-6.6
	c15.1-11.1,35.4-11.7,51.1-1.5c0.8,0.5,1.5,1,2.2,1.5c3.5,2.6,6.7,5.7,9.3,9.2c-5.8,7.7-8.9,17.1-8.9,26.8v70
	C-8.7,466.7-3,483.1,7.2,496.6z"/>
<linearGradient id="SVGID_00000098195194267015134750000007937804203763421885_" gradientUnits="userSpaceOnUse" x1="418.95" y1="350.0178" x2="418.95" y2="514.0683">
	<stop  offset="0" style="stop-color:#FFFFFF"/>
	<stop  offset="1" style="stop-color:#FFFFFF;stop-opacity:0"/>
</linearGradient>
<path style="fill:none;stroke:url(#SVGID_00000098195194267015134750000007937804203763421885_);" d="M413,374.7l12.4-19.1
	c1.2-1.8,2.5-3.6,4-5.2 M429.4,513.8l-20.9-31.2"/>
<linearGradient id="SVGID_00000168119099682069019920000009802756138932337293_" gradientUnits="userSpaceOnUse" x1="429.42" y1="349.89" x2="429.42" y2="350.89">
	<stop  offset="0" style="stop-color:#FFFFFF"/>
	<stop  offset="1" style="stop-color:#FFFFFF;stop-opacity:0"/>
</linearGradient>
<path style="fill:none;stroke:url(#SVGID_00000168119099682069019920000009802756138932337293_);" d="M429.4,350.4L429.4,350.4"/>
<linearGradient id="SVGID_00000157302425408434657430000002843531469575364995_" gradientUnits="userSpaceOnUse" x1="428.5337" y1="334.4983" x2="428.5337" y2="529.5883">
	<stop  offset="0" style="stop-color:#FFFFFF"/>
	<stop  offset="1" style="stop-color:#FFFFFF;stop-opacity:0"/>
</linearGradient>
<path style="fill:none;stroke:url(#SVGID_00000157302425408434657430000002843531469575364995_);" d="M506.4,496.7
	c-6.9,23.9-31.9,37.6-55.8,30.6c-8.2-2.4-15.6-7.1-21.2-13.5c-16.5,18.6-45,20.2-63.5,3.7c-16.5-14.7-19.9-39.3-8-57.9l10.7-16.5
	l7.1-11V432c-0.4-0.7-3.6-5.5-7.1-11l-10.7-16.5c-10.3-15.9-9.6-36.5,1.9-51.6l0.2-0.3c15.2-19.7,43.4-23.3,63.1-8.1
	c2.3,1.7,4.4,3.7,6.2,5.8c2.1-2.5,4.5-4.7,7.1-6.6c15.1-11.1,35.4-11.7,51.1-1.5c0.8,0.5,1.5,1,2.2,1.5c3.5,2.6,6.6,5.7,9.2,9.1
	c-5.8,7.8-8.9,17.2-8.9,26.8v70C490.5,466.7,496.2,483.1,506.4,496.7z"/>
<linearGradient id="SVGID_00000181781454834922003790000013636846218649082527_" gradientUnits="userSpaceOnUse" x1="283.5146" y1="351.2764" x2="283.5146" y2="449.79">
	<stop  offset="0" style="stop-color:#FFFFFF"/>
	<stop  offset="1" style="stop-color:#FFFFFF;stop-opacity:0"/>
</linearGradient>
<path style="fill:none;stroke:url(#SVGID_00000181781454834922003790000013636846218649082527_);" d="M278.6,449.8v-70
	c0-10.3,3.5-20.2,9.9-28.2"/>
<linearGradient id="SVGID_00000054974977137797140860000008202297225607440556_" gradientUnits="userSpaceOnUse" x1="287.62" y1="334.2538" x2="287.62" y2="529.5372">
	<stop  offset="0" style="stop-color:#FFFFFF"/>
	<stop  offset="1" style="stop-color:#FFFFFF;stop-opacity:0"/>
</linearGradient>
<path style="fill:none;stroke:url(#SVGID_00000054974977137797140860000008202297225607440556_);" d="M368.6,421v22l-10.7,16.5
	c-7.1,11-9.1,24.5-5.5,37c-26.8,35.8-77.6,43.1-113.4,16.3c-19.9-14.9-31.9-38.2-32.4-63.1v-70c0-24.9,20.1-45,45-45
	c8.9,0,17.5,2.6,24.9,7.5c4.3,2.8,8,6.4,11.1,10.5l0,0c14.9-19.9,43.1-23.9,63-9c3.4,2.5,6.4,5.5,8.9,8.9l0.2,0.3
	c-11.4,15.1-12.1,35.8-1.9,51.6L368.6,421z"/>
<linearGradient id="SVGID_00000143578409854688652080000010401627312512276869_" gradientUnits="userSpaceOnUse" x1="67.8946" y1="351.2764" x2="67.8946" y2="449.79">
	<stop  offset="0" style="stop-color:#FFFFFF"/>
	<stop  offset="1" style="stop-color:#FFFFFF;stop-opacity:0"/>
</linearGradient>
<path style="fill:none;stroke:url(#SVGID_00000143578409854688652080000010401627312512276869_);" d="M63,449.8v-70
	c0-10.3,3.5-20.2,9.9-28.2"/>
<linearGradient id="SVGID_00000155862046488084710010000003578164102934201524_" gradientUnits="userSpaceOnUse" x1="178.7204" y1="334.29" x2="178.7204" y2="529.3417">
	<stop  offset="0" style="stop-color:#FFFFFF"/>
	<stop  offset="1" style="stop-color:#FFFFFF;stop-opacity:0"/>
</linearGradient>
<path style="fill:none;stroke:url(#SVGID_00000155862046488084710010000003578164102934201524_);stroke-miterlimit:10;" d="
	M222.8,496.6c-7.1,23.8-32.1,37.4-55.9,30.4c-19.1-5.7-32.2-23.2-32.2-43.2v-104c0-24.9,20.1-45,45-45c14.2,0,27.5,6.7,36,18
	c-5.8,7.8-9,17.3-9,27v70C206.9,466.7,212.6,483.1,222.8,496.6z"/>
<linearGradient id="SVGID_00000178187884852167732410000005545881879710806167_" gradientUnits="userSpaceOnUse" x1="566.7095" y1="334.2247" x2="566.7095" y2="529.5283">
	<stop  offset="0" style="stop-color:#FFFFFF"/>
	<stop  offset="1" style="stop-color:#FFFFFF;stop-opacity:0"/>
</linearGradient>
<path style="fill:none;stroke:url(#SVGID_00000178187884852167732410000005545881879710806167_);" d="M633.8,483.8
	c0,4.5,0.7,8.9,2,13.1c-27,35.7-77.8,42.7-113.5,15.7c-19.7-14.9-31.5-38.1-32.1-62.8v-70c0-24.9,20.1-45,44.9-45
	c14.2,0,27.5,6.7,36.1,18l0,0l0,0v0c14.9-19.9,43.1-23.9,63-8.9c3.3,2.5,6.3,5.4,8.8,8.7c-6,7.8-9.2,17.4-9.2,27.3L633.8,483.8z"/>
</svg>
