<?xml version="1.0" encoding="utf-8"?>
<!-- Generator: Adobe Illustrator 26.0.3, SVG Export Plug-In . SVG Version: 6.00 Build 0)  -->
<svg version="1.1" id="圖層_1" xmlns="http://www.w3.org/2000/svg" xmlns:xlink="http://www.w3.org/1999/xlink" x="0px" y="0px"
	 viewBox="0 0 499.3 176.3" style="enable-background:new 0 0 499.3 176.3;" xml:space="preserve">
<style type="text/css">
	.st0{fill:none;stroke:#000000;}
	.st1{fill:none;stroke:#000000;stroke-miterlimit:10;}
</style>
<g>
	<g>
		<path class="st0" d="M438.6,169.6l-20.9-31.2 M422.2,30.5l12.4-19.1c1.2-1.9,2.5-3.6,4-5.2"/>
		<g>
			<path class="st0" d="M438.6,6.2L438.6,6.2"/>
			<g>
				<path class="st0" d="M297.7,7.4c-0.3,0.4-0.6,0.8-0.9,1.2"/>
				<path class="st0" d="M287.8,105.6v-70c0-10,3.2-19.2,8.8-26.7"/>
			</g>
			<g>
				<path class="st0" d="M82.1,7.4c-0.3,0.4-0.6,0.8-0.9,1.2"/>
				<path class="st0" d="M72.2,105.6v-70c0-10,3.2-19.2,8.8-26.7"/>
			</g>
		</g>
	</g>
</g>
<g>
	<g>
		<path class="st0" d="M-53.9-0.1c-2.4-1.8-4.6-3.9-6.7-6.2l-20.9-31.2 M-77-145.4l12.4-19.1c1.2-1.9,2.5-3.6,4-5.2
			c14.5-16.6,39.3-20.4,58.2-8.1c4.5,2.9,8.4,6.6,11.4,10.7c11,14.7,12.4,35.3,1.8,51.5c0,0-5.7,8.7-10.6,16.3
			C-3.4-93.9-6.5-89-7-88.2c0.5,0.8,3.7,5.7,7.2,11.2c5,7.7,10.7,16.5,10.7,16.5c7.5,11.4,9,24.9,5.5,37.1
			c-2.7,9-8.1,17.3-16.2,23.3"/>
		<path class="st0" d="M16.4,152.5c-2.7,9.3-8.4,17.8-16.7,23.8c-0.7-0.5-1.3-1-2-1.4c-16-10.4-36.3-9.3-50.9,1.4
			c-2.6-1.9-5.1-4.1-7.3-6.6c-2.2,2.5-4.7,4.8-7.3,6.7c-14.6-10.6-34.9-11.8-51-1.3c-0.6,0.4-1.3,0.9-1.9,1.3
			c-8.4-6.1-14.1-14.6-16.8-23.9c-3.5-12.1-1.9-25.6,5.5-37l10.7-16.5l7.1-11c0,0,0,0,0-0.1c-0.4-0.7-3.6-5.5-7.2-11
			c-5-7.6-10.7-16.4-10.7-16.4c-10.6-16.3-9.2-37,1.9-51.6c2.5-3.3,5.4-6.3,8.8-8.8c0.8-0.6,1.6-1.2,2.5-1.8
			c16.3-10.6,36.9-9.2,51.5,1.8c2.4,1.8,4.7,3.9,6.7,6.2c2-2.3,4.3-4.4,6.7-6.3c14.7-11,35.2-12.3,51.5-1.8C-1.6-1.2-0.7-0.6,0.1,0
			c3.4,2.6,6.4,5.5,8.8,8.8c-5.6,7.5-8.8,16.8-8.8,26.8v70C0.6,123.2,6.5,139.4,16.4,152.5z"/>
	</g>
	<g>
		<path class="st0" d="M515.6,152.5c-2.7,9.3-8.4,17.8-16.7,23.8c-0.7-0.5-1.3-1-2-1.4c-16-10.4-36.3-9.3-50.9,1.4
			c-2.6-1.9-5.1-4.1-7.3-6.6c-2.2,2.5-4.7,4.8-7.3,6.7c-14.6-10.6-34.9-11.8-51-1.3c-0.7,0.4-1.3,0.9-1.9,1.3
			c-8.4-6.1-14.1-14.6-16.8-23.9c-3.5-12.1-1.9-25.6,5.5-37L377.9,99l7.1-11c0,0,0,0,0.1-0.1c-0.4-0.7-3.6-5.5-7.2-11
			c-5-7.6-10.7-16.4-10.7-16.4c-10.6-16.3-9.2-37,1.9-51.6c2.5-3.3,5.4-6.2,8.8-8.8c0.8-0.6,1.6-1.2,2.5-1.8
			c16.3-10.6,36.9-9.2,51.5,1.8c2.4,1.8,4.7,3.9,6.7,6.2c2-2.3,4.3-4.4,6.7-6.3c14.7-11,35.2-12.3,51.5-1.8c0.9,0.6,1.8,1.2,2.6,1.8
			c3.4,2.6,6.4,5.5,8.8,8.8c-5.6,7.5-8.8,16.8-8.8,26.8v70C499.8,123.2,505.7,139.4,515.6,152.5z"/>
		<g>
			<g>
				<path class="st0" d="M377.8,76.8v22l-10.7,16.5c-7.4,11.4-9,24.9-5.5,37c-4.7,6.3-10.4,11.9-16.7,16.6
					c-3.8-1.1-7.9-1.6-12.1-1.6c-14.5,0-27.3,6.9-35.6,17.4l0,0l0,0l0,0c-0.1,0-0.3,0-0.4,0s-0.3,0-0.4,0
					c-8.2-10.6-21.1-17.4-35.6-17.4c-4.2,0-8.3,0.6-12.1,1.6c-3-2.2-5.9-4.7-8.6-7.3c-2.9-2.9-5.6-6-8.1-9.2
					c-9.8-13.1-15.8-29.3-16.2-46.8v-70c0-10.1,3.3-19.5,9-27c5.7-7.6,13.8-13.3,23.1-16.1c4.1-1.2,8.4-1.9,12.9-1.9
					c14.7,0,27.8,7.1,36,18l0,0c8.2-10.9,21.3-18,36-18c4.5,0,8.8,0.7,12.9,1.9c9.4,2.8,17.5,8.6,23.2,16.3
					c-11.1,14.7-12.4,35.3-1.9,51.6C367.1,60.4,372.8,69.2,377.8,76.8z"/>
				<path class="st0" d="M515.6-23.4C513-14.3,507.5-6.1,499.4,0c-0.8-0.6-1.7-1.3-2.6-1.8C480.5-12.3,460-11,445.3,0
					c-2.4-1.8-4.6-3.9-6.7-6.2c-2.1,2.3-4.3,4.4-6.8,6.2c-14.7-11-35.2-12.3-51.5-1.8c-0.9,0.6-1.7,1.1-2.5,1.8
					c-8.1-6-13.5-14.4-16.2-23.5c-3.5-12.1-1.9-25.6,5.5-37L377.8-77l7.1-11c0,0,0,0,0.1-0.1c-0.4-0.7-3.6-5.5-7.2-11
					c-5-7.6-10.7-16.4-10.7-16.4c-10.6-16.3-9.2-37,1.9-51.7c3.1-4,6.9-7.6,11.3-10.5c19-12.3,43.8-8.5,58.3,8
					c14.5-16.6,39.3-20.4,58.2-8.1c4.5,2.9,8.4,6.6,11.4,10.7c-5.6,7.5-8.8,16.8-8.8,26.8v70C499.8-52.7,505.7-36.5,515.6-23.4z"/>
				<path class="st0" d="M377.8-99.1v22l-10.7,16.5c-7.4,11.4-9,24.9-5.5,37c-4.5,6-9.9,11.4-15.9,16c-4.1-1.2-8.4-1.9-12.9-1.9
					c-14.7,0-27.8,7.1-36,18l0,0c-8.2-10.9-21.3-18-36-18c-4.5,0-8.8,0.7-12.9,1.9c-2.8-2.1-5.4-4.3-7.8-6.7c-2.9-2.9-5.6-6-8.1-9.2
					c-9.8-13.1-15.8-29.3-16.2-46.8v-70c0-10.2,3.3-19.5,9-27c8.2-10.9,21.3-18,36-18s27.8,7.1,36,18l0,0c8.2-10.9,21.3-18,36-18
					c14.8,0,28,7.1,36.2,18.1c-11.1,14.7-12.4,35.3-1.9,51.7C367.1-115.5,372.8-106.7,377.8-99.1z"/>
			</g>
			<g>
				<path class="st0" d="M143.8,139.6c0,4.6,0.7,9,2,13.1c-4.7,6.2-10.2,11.6-16.5,16.2c-3.8-1.1-7.9-1.6-12.1-1.6
					c-14.5,0-27.4,6.9-35.6,17.4l0,0l0,0l0,0c-0.1,0-0.3,0-0.4,0s-0.3,0-0.4,0c-8.2-10.6-21.1-17.4-35.6-17.4
					c-4.2,0-8.3,0.6-12.1,1.6c-3-2.2-5.9-4.7-8.6-7.3c-2.9-2.8-5.6-5.9-8.1-9.2c-9.9-13.1-15.8-29.3-16.2-46.9v-70
					C0.2,25.4,3.5,16.1,9,8.7C14.8,1.1,22.9-4.7,32.3-7.5c4.1-1.2,8.4-1.9,12.9-1.9c14.7,0,27.8,7.1,36,18l0,0
					c8.2-10.9,21.3-18,36-18c4.5,0,8.8,0.7,12.9,1.9c9.2,2.8,17.2,8.4,22.9,15.9c-5.8,7.6-9.2,17-9.2,27.3L143.8,139.6L143.8,139.6z
					"/>
				<path class="st0" d="M143.8-36.3c0,4.6,0.7,9,2,13.1c-4.5,5.9-9.7,11.2-15.6,15.6c-4.1-1.2-8.4-1.9-12.9-1.9
					c-14.7,0-27.8,7.1-36,18l0,0c-8.2-10.9-21.3-18-36-18c-4.5,0-8.8,0.7-12.9,1.9c-2.8-2.1-5.3-4.3-7.8-6.7
					c-2.9-2.9-5.6-5.9-8.1-9.2c-10-13-15.9-29.2-16.3-46.8v-70c0-10.1,3.3-19.4,8.8-26.9c8.2-11,21.3-18.1,36.2-18.1
					c14.7,0,27.8,7.1,36,18l0,0c8.2-10.9,21.3-18,36-18c14.6,0,27.6,6.9,35.8,17.7c-5.8,7.6-9.2,17-9.2,27.3V-36.3z"/>
			</g>
			<path class="st1" d="M232,152.4c-2.8,9.6-8.8,17.8-16.7,23.6l0,0c-7.4-5.4-16.6-8.6-26.5-8.6s-19.1,3.2-26.5,8.6l0,0
				c-7.8-5.7-13.7-13.8-16.5-23.2c-1.3-4.2-2-8.6-2-13.1v-104c0-10.3,3.4-19.7,9.2-27.3c2.5-3.3,5.4-6.2,8.7-8.7
				c7.5-5.7,16.9-9,27.1-9s19.5,3.4,27.1,9c3.4,2.5,6.4,5.5,8.9,8.9c-5.6,7.5-9,16.9-9,27v70C216.2,123.1,222.1,139.3,232,152.4z"/>
			<path class="st1" d="M232-23.5c-2.8,9.3-8.5,17.4-16.1,23.1c-7.5-5.7-16.9-9-27.1-9s-19.5,3.4-27.1,9c-7.5-5.7-13.2-13.6-16-22.8
				c-1.3-4.1-2-8.6-2-13.1v-104c0-10.3,3.4-19.7,9.2-27.3c8.2-10.8,21.2-17.7,35.8-17.7c14.7,0,27.8,7.1,36,18c-5.6,7.5-9,16.9-9,27
				v70C216.2-52.8,222.1-36.6,232-23.5z"/>
		</g>
	</g>
	<g>
		<g>
			<path class="st0" d="M643,139.6c0,4.6,0.7,9,2,13.1c-4.7,6.2-10.2,11.6-16.5,16.2c-3.8-1.1-7.9-1.6-12.1-1.6
				c-14.5,0-27.4,6.9-35.6,17.4l0,0c-0.1,0-0.3,0-0.4,0c-0.1,0-0.3,0-0.4,0c-8.2-10.6-21.1-17.4-35.6-17.4c-4.2,0-8.3,0.6-12.1,1.6
				c-3-2.2-5.9-4.7-8.6-7.3c-2.9-2.8-5.6-5.9-8.1-9.2c-9.9-13.1-15.8-29.3-16.2-46.9v-70c0-10.1,3.3-19.3,8.8-26.8
				C513.9,1,522-4.8,531.4-7.6c4.1-1.2,8.4-1.9,12.9-1.9c14.7,0,27.8,7.1,36,18l0,0c8.2-10.9,21.3-18,36-18c4.5,0,8.8,0.7,12.9,1.9
				c9.2,2.8,17.2,8.4,22.9,15.9c-5.8,7.6-9.2,17-9.2,27.3L643,139.6L643,139.6z"/>
			<path class="st0" d="M643-36.3c0,4.6,0.7,9,2,13.1c-4.5,5.9-9.7,11.2-15.6,15.6c-4.1-1.2-8.4-1.9-12.9-1.9
				c-14.7,0-27.8,7.1-36,18l0,0c-8.2-10.9-21.3-18-36-18c-4.5,0-8.8,0.7-12.9,1.9c-2.7-2.1-5.4-4.3-7.8-6.7
				c-2.9-2.9-5.6-5.9-8.1-9.2c-9.9-13.1-15.8-29.3-16.2-46.9v-70c0-10.1,3.3-19.4,8.8-26.8c8.2-11,21.3-18.2,36.1-18.2
				c14.7,0,27.8,7.1,36,18l0,0c8.2-10.9,21.3-18,36-18c14.6,0,27.6,6.9,35.8,17.7c-5.8,7.6-9.2,17-9.2,27.3L643-36.3L643-36.3z"/>
		</g>
	</g>
</g>
<g>
	<g>
		<path class="st0" d="M16.4,329.2c-2.9,10-9.3,19-18.7,25.1c-19,12.3-43.8,8.5-58.3-8c-14.5,16.5-39.3,20.3-58.3,8
			c-9.4-6.1-15.8-15.2-18.7-25.2c-3.5-12.1-1.9-25.6,5.5-37l10.7-16.5l7.1-11c0,0,0,0,0-0.1c-0.4-0.7-3.6-5.5-7.2-11
			c-5-7.7-10.7-16.4-10.7-16.4c-10.6-16.3-9.2-37,1.9-51.6c2.6-3.5,5.8-6.6,9.4-9.2c0.6-0.5,1.3-0.9,1.9-1.3
			c16.1-10.4,36.3-9.3,51,1.3c2.6,1.9,5.1,4.1,7.3,6.6c2.2-2.5,4.7-4.8,7.3-6.7c14.6-10.7,34.9-11.8,50.9-1.4c0.7,0.5,1.4,0.9,2,1.4
			c3.7,2.7,6.8,5.8,9.4,9.2c-5.6,7.5-8.8,16.8-8.8,26.8v70C0.6,299.9,6.5,316.1,16.4,329.2z"/>
	</g>
	<g>
		<g>
			<path class="st0" d="M515.6,329.2c-2.9,10-9.3,19-18.7,25.1c-19,12.3-43.8,8.5-58.3-8c-14.5,16.5-39.3,20.3-58.3,8
				c-9.4-6.1-15.8-15.2-18.7-25.2c-3.5-12.1-1.9-25.6,5.5-37l10.7-16.5l7.1-11c0,0,0,0,0.1-0.1c-0.4-0.7-3.6-5.5-7.2-11
				c-5-7.7-10.7-16.4-10.7-16.4c-10.6-16.3-9.2-37,1.9-51.6c2.6-3.5,5.8-6.6,9.4-9.2c0.6-0.5,1.3-0.9,1.9-1.3
				c16.1-10.4,36.3-9.3,51,1.3c2.6,1.9,5.1,4.1,7.3,6.6c2.2-2.5,4.7-4.8,7.3-6.7c14.6-10.7,34.9-11.8,50.9-1.4
				c0.7,0.5,1.4,0.9,2,1.4c3.7,2.7,6.8,5.8,9.4,9.2c-5.6,7.5-8.8,16.8-8.8,26.8v70C499.8,299.9,505.7,316.1,515.6,329.2z"/>
			<g>
				<path class="st0" d="M377.8,253.6v22l-10.7,16.5c-7.4,11.4-9,24.9-5.5,37c-14.8,19.7-38.3,32.4-64.8,32.4
					c-22.1,0-42.1-8.8-56.7-23.1c-2.9-2.9-5.6-6-8.1-9.2c-9.8-13.1-15.8-29.3-16.2-46.8v-70c0-10.2,3.3-19.5,9-27
					c5.9-7.8,14.2-13.6,23.9-16.3c3.9-1.1,7.9-1.6,12.1-1.6c14.5,0,27.3,6.9,35.6,17.4c0.1,0.2,0.3,0.4,0.4,0.5l0,0
					c0.1-0.2,0.3-0.4,0.4-0.5l0,0c8.2-10.6,21.1-17.4,35.6-17.4c4.2,0,8.2,0.6,12.1,1.6c9.8,2.7,18.2,8.6,24.1,16.5
					c-11.1,14.7-12.4,35.3-1.9,51.6C367.1,237.1,372.8,245.9,377.8,253.6z"/>
			</g>
			<g>
				<path class="st0" d="M143.8,316.3c0,4.6,0.7,9,2,13.1c-14.8,19.5-38.2,32.1-64.5,32.1c-22.1,0-42.1-8.8-56.7-23.1
					c-2.9-2.8-5.6-5.9-8.1-9.2c-10-13.1-15.9-29.3-16.3-46.9v-70c0-10.1,3.3-19.4,8.8-26.8c5.9-7.9,14.3-13.8,24-16.5
					c3.9-1.1,7.9-1.6,12.1-1.6c14.4,0,27.3,6.9,35.6,17.4c0.1,0.2,0.3,0.4,0.4,0.5l0,0c0.1-0.2,0.3-0.4,0.4-0.5l0,0
					c8.2-10.6,21.1-17.4,35.6-17.4c4.2,0,8.2,0.6,12.1,1.6c9.6,2.6,17.8,8.4,23.7,16.1c-5.8,7.6-9.2,17-9.2,27.3v103.9H143.8z"/>
			</g>
			<path class="st1" d="M232,329.2c-5.5,18.6-22.8,32.2-43.2,32.2c-20.3,0-37.4-13.4-43-31.9c-1.3-4.2-2-8.6-2-13.1v-104
				c0-10.3,3.4-19.7,9.2-27.3c2.6-3.5,5.8-6.5,9.3-9.1l0,0c7.4-5.4,16.6-8.6,26.5-8.6s19.1,3.2,26.5,8.6l0,0
				c3.6,2.6,6.8,5.8,9.5,9.3c-5.6,7.5-9,16.9-9,27v70C216.2,299.9,222.1,316.1,232,329.2z"/>
		</g>
	</g>
	<g>
		<g>
			<path class="st0" d="M643,316.3c0,4.6,0.7,9,2,13.1c-14.8,19.5-38.2,32.1-64.5,32.1c-22.1,0-42.1-8.8-56.7-23.1
				c-2.9-2.8-5.6-5.9-8.1-9.2c-9.9-13.1-15.8-29.3-16.2-46.9v-70c0-10.1,3.3-19.4,8.8-26.8c5.9-7.9,14.3-13.8,24-16.5
				c3.9-1.1,7.9-1.6,12.1-1.6c14.4,0,27.3,6.9,35.6,17.4c0.1,0.2,0.3,0.4,0.4,0.5l0,0c0.1-0.2,0.3-0.4,0.4-0.6
				c8.2-10.6,21.1-17.4,35.6-17.4c4.2,0,8.2,0.6,12.1,1.6c9.6,2.6,17.9,8.4,23.7,16.1c-5.8,7.6-9.2,17-9.2,27.3L643,316.3L643,316.3
				z"/>
		</g>
	</g>
</g>
</svg>
